<mxfile host="app.diagrams.net" modified="2023-10-04T19:27:59.854Z" agent="Mozilla/5.0 (Windows NT 10.0; Win64; x64) AppleWebKit/537.36 (KHTML, like Gecko) Chrome/117.0.0.0 Safari/537.36" etag="scDJmceY-R5FLg6rreUj" version="22.0.0" type="device">
  <diagram id="2IALwMCwGJNcvHjEwLES" name="Page-1">
    <mxGraphModel dx="1435" dy="925" grid="0" gridSize="10" guides="0" tooltips="1" connect="0" arrows="1" fold="1" page="0" pageScale="1" pageWidth="827" pageHeight="1169" background="#ffffff" math="0" shadow="0">
      <root>
        <mxCell id="0" />
        <mxCell id="1" parent="0" />
        <mxCell id="wSTr7OxH0drEcwQe5ynE-115" value="&lt;b&gt;&lt;font style=&quot;font-size: 13px;&quot;&gt;ins_id&lt;/font&gt;&lt;/b&gt;" style="whiteSpace=wrap;html=1;align=center;fontStyle=4" parent="1" vertex="1">
          <mxGeometry x="-166" y="37" width="73" height="31" as="geometry" />
        </mxCell>
        <mxCell id="wSTr7OxH0drEcwQe5ynE-123" value="&lt;b&gt;&lt;u&gt;&lt;font style=&quot;font-size: 14px;&quot;&gt;Instructor&lt;/font&gt;&lt;/u&gt;&lt;/b&gt;" style="text;strokeColor=none;fillColor=none;spacingLeft=4;spacingRight=4;overflow=hidden;rotatable=0;points=[[0,0.5],[1,0.5]];portConstraint=eastwest;fontSize=12;whiteSpace=wrap;html=1;labelBackgroundColor=none;labelBorderColor=none;" parent="1" vertex="1">
          <mxGeometry x="-166" y="7" width="83" height="29" as="geometry" />
        </mxCell>
        <mxCell id="wSTr7OxH0drEcwQe5ynE-124" value="&lt;b&gt;&lt;font style=&quot;font-size: 13px;&quot;&gt;ins_name&lt;/font&gt;&lt;/b&gt;" style="whiteSpace=wrap;html=1;align=center;" parent="1" vertex="1">
          <mxGeometry x="-92" y="37" width="73" height="31" as="geometry" />
        </mxCell>
        <mxCell id="wSTr7OxH0drEcwQe5ynE-125" value="&lt;span style=&quot;font-size: 13px;&quot;&gt;&lt;b&gt;gender&lt;/b&gt;&lt;/span&gt;" style="whiteSpace=wrap;html=1;align=center;" parent="1" vertex="1">
          <mxGeometry x="-18" y="37" width="73" height="31" as="geometry" />
        </mxCell>
        <mxCell id="wSTr7OxH0drEcwQe5ynE-126" value="&lt;b&gt;&lt;font style=&quot;font-size: 13px;&quot;&gt;birth_date&lt;/font&gt;&lt;/b&gt;" style="whiteSpace=wrap;html=1;align=center;" parent="1" vertex="1">
          <mxGeometry x="56" y="37" width="73" height="31" as="geometry" />
        </mxCell>
        <mxCell id="wSTr7OxH0drEcwQe5ynE-127" value="&lt;b&gt;&lt;font style=&quot;font-size: 13px;&quot;&gt;age&lt;/font&gt;&lt;/b&gt;" style="whiteSpace=wrap;html=1;align=center;" parent="1" vertex="1">
          <mxGeometry x="130" y="37" width="73" height="31" as="geometry" />
        </mxCell>
        <mxCell id="wSTr7OxH0drEcwQe5ynE-128" value="&lt;b&gt;&lt;font style=&quot;font-size: 13px;&quot;&gt;city&lt;/font&gt;&lt;/b&gt;" style="whiteSpace=wrap;html=1;align=center;" parent="1" vertex="1">
          <mxGeometry x="204" y="37" width="73" height="31" as="geometry" />
        </mxCell>
        <mxCell id="wSTr7OxH0drEcwQe5ynE-129" value="&lt;span style=&quot;font-size: 13px;&quot;&gt;&lt;b&gt;degree&lt;/b&gt;&lt;/span&gt;" style="whiteSpace=wrap;html=1;align=center;" parent="1" vertex="1">
          <mxGeometry x="278" y="37" width="73" height="31" as="geometry" />
        </mxCell>
        <mxCell id="wSTr7OxH0drEcwQe5ynE-131" value="&lt;b&gt;&lt;font style=&quot;font-size: 13px;&quot;&gt;phone&lt;/font&gt;&lt;/b&gt;" style="whiteSpace=wrap;html=1;align=center;" parent="1" vertex="1">
          <mxGeometry x="352" y="37" width="68" height="31" as="geometry" />
        </mxCell>
        <mxCell id="wSTr7OxH0drEcwQe5ynE-132" value="&lt;b&gt;&lt;font style=&quot;font-size: 13px;&quot;&gt;salary&lt;/font&gt;&lt;/b&gt;" style="whiteSpace=wrap;html=1;align=center;" parent="1" vertex="1">
          <mxGeometry x="413" y="37" width="73" height="31" as="geometry" />
        </mxCell>
        <mxCell id="wSTr7OxH0drEcwQe5ynE-133" value="&lt;b&gt;&lt;font style=&quot;font-size: 13px;&quot;&gt;password&lt;/font&gt;&lt;/b&gt;" style="whiteSpace=wrap;html=1;align=center;" parent="1" vertex="1">
          <mxGeometry x="487" y="37" width="73" height="31" as="geometry" />
        </mxCell>
        <mxCell id="wSTr7OxH0drEcwQe5ynE-154" style="edgeStyle=orthogonalEdgeStyle;rounded=0;orthogonalLoop=1;jettySize=auto;html=1;" parent="1" source="wSTr7OxH0drEcwQe5ynE-139" edge="1">
          <mxGeometry relative="1" as="geometry">
            <mxPoint x="-108" y="110" as="targetPoint" />
            <Array as="points">
              <mxPoint x="685" y="93" />
              <mxPoint x="-108" y="93" />
            </Array>
          </mxGeometry>
        </mxCell>
        <mxCell id="wSTr7OxH0drEcwQe5ynE-139" value="&lt;b&gt;&lt;font style=&quot;font-size: 13px;&quot;&gt;course_id&lt;/font&gt;&lt;/b&gt;" style="whiteSpace=wrap;html=1;align=center;" parent="1" vertex="1">
          <mxGeometry x="561" y="37" width="73" height="31" as="geometry" />
        </mxCell>
        <mxCell id="wSTr7OxH0drEcwQe5ynE-141" value="&lt;b&gt;&lt;font style=&quot;font-size: 13px;&quot;&gt;course_id&lt;/font&gt;&lt;/b&gt;" style="whiteSpace=wrap;html=1;align=center;fontStyle=4" parent="1" vertex="1">
          <mxGeometry x="-167" y="107" width="73" height="31" as="geometry" />
        </mxCell>
        <mxCell id="wSTr7OxH0drEcwQe5ynE-142" value="&lt;b&gt;&lt;u&gt;&lt;font style=&quot;font-size: 14px;&quot;&gt;Course&lt;/font&gt;&lt;/u&gt;&lt;/b&gt;" style="text;strokeColor=none;fillColor=none;spacingLeft=4;spacingRight=4;overflow=hidden;rotatable=0;points=[[0,0.5],[1,0.5]];portConstraint=eastwest;fontSize=12;whiteSpace=wrap;html=1;labelBackgroundColor=none;labelBorderColor=none;" parent="1" vertex="1">
          <mxGeometry x="-167" y="77" width="83" height="29" as="geometry" />
        </mxCell>
        <mxCell id="wSTr7OxH0drEcwQe5ynE-143" value="&lt;b&gt;&lt;font style=&quot;font-size: 13px;&quot;&gt;course_name&lt;/font&gt;&lt;/b&gt;" style="whiteSpace=wrap;html=1;align=center;" parent="1" vertex="1">
          <mxGeometry x="-93" y="107" width="93" height="31" as="geometry" />
        </mxCell>
        <mxCell id="wSTr7OxH0drEcwQe5ynE-144" value="&lt;span style=&quot;font-size: 13px;&quot;&gt;&lt;b&gt;course_hours&lt;br&gt;&lt;/b&gt;&lt;/span&gt;" style="whiteSpace=wrap;html=1;align=center;" parent="1" vertex="1">
          <mxGeometry y="107" width="110" height="31" as="geometry" />
        </mxCell>
        <mxCell id="wSTr7OxH0drEcwQe5ynE-162" style="edgeStyle=orthogonalEdgeStyle;rounded=0;orthogonalLoop=1;jettySize=auto;html=1;" parent="1" source="wSTr7OxH0drEcwQe5ynE-145" target="wSTr7OxH0drEcwQe5ynE-155" edge="1">
          <mxGeometry relative="1" as="geometry">
            <Array as="points">
              <mxPoint x="200" y="123" />
              <mxPoint x="200" y="146" />
              <mxPoint x="-111" y="146" />
            </Array>
          </mxGeometry>
        </mxCell>
        <mxCell id="wSTr7OxH0drEcwQe5ynE-145" value="&lt;b&gt;&lt;font style=&quot;font-size: 13px;&quot;&gt;track_id&lt;/font&gt;&lt;/b&gt;" style="whiteSpace=wrap;html=1;align=center;" parent="1" vertex="1">
          <mxGeometry x="102" y="107" width="82" height="31" as="geometry" />
        </mxCell>
        <mxCell id="wSTr7OxH0drEcwQe5ynE-155" value="&lt;b&gt;&lt;font style=&quot;font-size: 13px;&quot;&gt;track_id&lt;/font&gt;&lt;/b&gt;" style="whiteSpace=wrap;html=1;align=center;fontStyle=4" parent="1" vertex="1">
          <mxGeometry x="-168" y="171" width="73" height="31" as="geometry" />
        </mxCell>
        <mxCell id="wSTr7OxH0drEcwQe5ynE-156" value="&lt;b&gt;&lt;u&gt;&lt;font style=&quot;font-size: 14px;&quot;&gt;Track&lt;/font&gt;&lt;/u&gt;&lt;/b&gt;" style="text;strokeColor=none;fillColor=none;spacingLeft=4;spacingRight=4;overflow=hidden;rotatable=0;points=[[0,0.5],[1,0.5]];portConstraint=eastwest;fontSize=12;whiteSpace=wrap;html=1;labelBackgroundColor=none;labelBorderColor=none;" parent="1" vertex="1">
          <mxGeometry x="-168" y="141" width="83" height="29" as="geometry" />
        </mxCell>
        <mxCell id="wSTr7OxH0drEcwQe5ynE-157" value="&lt;b&gt;&lt;font style=&quot;font-size: 13px;&quot;&gt;track_name&lt;/font&gt;&lt;/b&gt;" style="whiteSpace=wrap;html=1;align=center;" parent="1" vertex="1">
          <mxGeometry x="-94" y="171" width="86" height="31" as="geometry" />
        </mxCell>
        <mxCell id="wSTr7OxH0drEcwQe5ynE-161" style="edgeStyle=orthogonalEdgeStyle;rounded=0;orthogonalLoop=1;jettySize=auto;html=1;" parent="1" source="wSTr7OxH0drEcwQe5ynE-158" target="wSTr7OxH0drEcwQe5ynE-115" edge="1">
          <mxGeometry relative="1" as="geometry">
            <Array as="points">
              <mxPoint x="189" y="310" />
              <mxPoint x="189" y="82" />
              <mxPoint x="-129" y="82" />
            </Array>
          </mxGeometry>
        </mxCell>
        <mxCell id="wSTr7OxH0drEcwQe5ynE-158" value="&lt;span style=&quot;font-size: 13px;&quot;&gt;&lt;b&gt;manager_id&lt;/b&gt;&lt;/span&gt;" style="whiteSpace=wrap;html=1;align=center;" parent="1" vertex="1">
          <mxGeometry x="-24" y="294" width="85" height="31" as="geometry" />
        </mxCell>
        <mxCell id="wSTr7OxH0drEcwQe5ynE-164" value="&lt;b&gt;&lt;font style=&quot;font-size: 13px;&quot;&gt;branch_id&lt;/font&gt;&lt;/b&gt;" style="whiteSpace=wrap;html=1;align=center;fontStyle=4" parent="1" vertex="1">
          <mxGeometry x="-169" y="233" width="73" height="31" as="geometry" />
        </mxCell>
        <mxCell id="wSTr7OxH0drEcwQe5ynE-165" value="&lt;b&gt;&lt;u&gt;&lt;font style=&quot;font-size: 14px;&quot;&gt;Branch&lt;/font&gt;&lt;/u&gt;&lt;/b&gt;" style="text;strokeColor=none;fillColor=none;spacingLeft=4;spacingRight=4;overflow=hidden;rotatable=0;points=[[0,0.5],[1,0.5]];portConstraint=eastwest;fontSize=12;whiteSpace=wrap;html=1;labelBackgroundColor=none;labelBorderColor=none;" parent="1" vertex="1">
          <mxGeometry x="-169" y="203" width="83" height="29" as="geometry" />
        </mxCell>
        <mxCell id="wSTr7OxH0drEcwQe5ynE-166" value="&lt;b&gt;&lt;font style=&quot;font-size: 13px;&quot;&gt;branch_name&lt;/font&gt;&lt;/b&gt;" style="whiteSpace=wrap;html=1;align=center;" parent="1" vertex="1">
          <mxGeometry x="-95" y="233" width="91" height="31" as="geometry" />
        </mxCell>
        <mxCell id="wSTr7OxH0drEcwQe5ynE-175" style="edgeStyle=orthogonalEdgeStyle;rounded=0;orthogonalLoop=1;jettySize=auto;html=1;exitX=-0.023;exitY=0.45;exitDx=0;exitDy=0;exitPerimeter=0;" parent="1" source="wSTr7OxH0drEcwQe5ynE-169" edge="1">
          <mxGeometry relative="1" as="geometry">
            <mxPoint x="-171" y="246" as="targetPoint" />
            <Array as="points">
              <mxPoint x="-190" y="308" />
              <mxPoint x="-190" y="246" />
            </Array>
          </mxGeometry>
        </mxCell>
        <mxCell id="wSTr7OxH0drEcwQe5ynE-169" value="&lt;b&gt;&lt;font style=&quot;font-size: 13px;&quot;&gt;branch_id&lt;/font&gt;&lt;/b&gt;" style="whiteSpace=wrap;html=1;align=center;fontStyle=4" parent="1" vertex="1">
          <mxGeometry x="-171" y="294" width="73" height="31" as="geometry" />
        </mxCell>
        <mxCell id="wSTr7OxH0drEcwQe5ynE-170" value="&lt;b&gt;&lt;u&gt;&lt;font style=&quot;font-size: 14px;&quot;&gt;Branch_Track&lt;/font&gt;&lt;/u&gt;&lt;/b&gt;" style="text;strokeColor=none;fillColor=none;spacingLeft=4;spacingRight=4;overflow=hidden;rotatable=0;points=[[0,0.5],[1,0.5]];portConstraint=eastwest;fontSize=12;whiteSpace=wrap;html=1;labelBackgroundColor=none;labelBorderColor=none;" parent="1" vertex="1">
          <mxGeometry x="-171" y="264" width="108" height="29" as="geometry" />
        </mxCell>
        <mxCell id="wSTr7OxH0drEcwQe5ynE-176" style="edgeStyle=orthogonalEdgeStyle;rounded=0;orthogonalLoop=1;jettySize=auto;html=1;" parent="1" source="wSTr7OxH0drEcwQe5ynE-171" target="wSTr7OxH0drEcwQe5ynE-155" edge="1">
          <mxGeometry relative="1" as="geometry">
            <Array as="points">
              <mxPoint x="-60" y="276" />
              <mxPoint x="176" y="276" />
              <mxPoint x="176" y="224" />
              <mxPoint x="-111" y="224" />
            </Array>
          </mxGeometry>
        </mxCell>
        <mxCell id="wSTr7OxH0drEcwQe5ynE-171" value="&lt;b&gt;&lt;font style=&quot;font-size: 13px;&quot;&gt;track_id&lt;/font&gt;&lt;/b&gt;" style="whiteSpace=wrap;html=1;align=center;fontStyle=4" parent="1" vertex="1">
          <mxGeometry x="-97" y="294" width="73" height="31" as="geometry" />
        </mxCell>
        <mxCell id="wSTr7OxH0drEcwQe5ynE-177" value="&lt;b&gt;&lt;font style=&quot;font-size: 13px;&quot;&gt;st_id&lt;/font&gt;&lt;/b&gt;" style="whiteSpace=wrap;html=1;align=center;fontStyle=4" parent="1" vertex="1">
          <mxGeometry x="-172" y="356" width="73" height="31" as="geometry" />
        </mxCell>
        <mxCell id="wSTr7OxH0drEcwQe5ynE-178" value="&lt;b&gt;&lt;u&gt;&lt;font style=&quot;font-size: 14px;&quot;&gt;Student&lt;/font&gt;&lt;/u&gt;&lt;/b&gt;" style="text;strokeColor=none;fillColor=none;spacingLeft=4;spacingRight=4;overflow=hidden;rotatable=0;points=[[0,0.5],[1,0.5]];portConstraint=eastwest;fontSize=12;whiteSpace=wrap;html=1;labelBackgroundColor=none;labelBorderColor=none;" parent="1" vertex="1">
          <mxGeometry x="-172" y="326" width="83" height="29" as="geometry" />
        </mxCell>
        <mxCell id="wSTr7OxH0drEcwQe5ynE-179" value="&lt;b&gt;&lt;font style=&quot;font-size: 13px;&quot;&gt;st_name&lt;br&gt;&lt;/font&gt;&lt;/b&gt;" style="whiteSpace=wrap;html=1;align=center;" parent="1" vertex="1">
          <mxGeometry x="-98" y="356" width="73" height="31" as="geometry" />
        </mxCell>
        <mxCell id="wSTr7OxH0drEcwQe5ynE-180" value="&lt;span style=&quot;font-size: 13px;&quot;&gt;&lt;b&gt;gender&lt;/b&gt;&lt;/span&gt;" style="whiteSpace=wrap;html=1;align=center;" parent="1" vertex="1">
          <mxGeometry x="-24" y="356" width="73" height="31" as="geometry" />
        </mxCell>
        <mxCell id="wSTr7OxH0drEcwQe5ynE-181" value="&lt;b&gt;&lt;font style=&quot;font-size: 13px;&quot;&gt;birth_date&lt;/font&gt;&lt;/b&gt;" style="whiteSpace=wrap;html=1;align=center;" parent="1" vertex="1">
          <mxGeometry x="50" y="356" width="73" height="31" as="geometry" />
        </mxCell>
        <mxCell id="wSTr7OxH0drEcwQe5ynE-182" value="&lt;b&gt;&lt;font style=&quot;font-size: 13px;&quot;&gt;age&lt;/font&gt;&lt;/b&gt;" style="whiteSpace=wrap;html=1;align=center;" parent="1" vertex="1">
          <mxGeometry x="124" y="356" width="73" height="31" as="geometry" />
        </mxCell>
        <mxCell id="wSTr7OxH0drEcwQe5ynE-183" value="&lt;b&gt;&lt;font style=&quot;font-size: 13px;&quot;&gt;city&lt;/font&gt;&lt;/b&gt;" style="whiteSpace=wrap;html=1;align=center;" parent="1" vertex="1">
          <mxGeometry x="198" y="356" width="73" height="31" as="geometry" />
        </mxCell>
        <mxCell id="wSTr7OxH0drEcwQe5ynE-184" value="&lt;span style=&quot;font-size: 13px;&quot;&gt;&lt;b&gt;educational_field&lt;/b&gt;&lt;/span&gt;" style="whiteSpace=wrap;html=1;align=center;" parent="1" vertex="1">
          <mxGeometry x="272" y="356" width="115" height="31" as="geometry" />
        </mxCell>
        <mxCell id="wSTr7OxH0drEcwQe5ynE-185" value="&lt;b&gt;&lt;font style=&quot;font-size: 13px;&quot;&gt;graduation_year&lt;/font&gt;&lt;/b&gt;" style="whiteSpace=wrap;html=1;align=center;" parent="1" vertex="1">
          <mxGeometry x="387" y="356" width="115" height="31" as="geometry" />
        </mxCell>
        <mxCell id="wSTr7OxH0drEcwQe5ynE-187" value="&lt;b&gt;&lt;font style=&quot;font-size: 13px;&quot;&gt;intake&lt;/font&gt;&lt;/b&gt;" style="whiteSpace=wrap;html=1;align=center;" parent="1" vertex="1">
          <mxGeometry x="829" y="356" width="73" height="31" as="geometry" />
        </mxCell>
        <mxCell id="wSTr7OxH0drEcwQe5ynE-194" style="edgeStyle=orthogonalEdgeStyle;rounded=0;orthogonalLoop=1;jettySize=auto;html=1;" parent="1" source="wSTr7OxH0drEcwQe5ynE-188" target="wSTr7OxH0drEcwQe5ynE-155" edge="1">
          <mxGeometry relative="1" as="geometry">
            <Array as="points">
              <mxPoint x="968" y="393" />
              <mxPoint x="-197" y="393" />
              <mxPoint x="-197" y="186" />
            </Array>
          </mxGeometry>
        </mxCell>
        <mxCell id="wSTr7OxH0drEcwQe5ynE-188" value="&lt;b&gt;&lt;font style=&quot;font-size: 13px;&quot;&gt;track_id&lt;/font&gt;&lt;/b&gt;" style="whiteSpace=wrap;html=1;align=center;" parent="1" vertex="1">
          <mxGeometry x="903" y="356" width="73" height="31" as="geometry" />
        </mxCell>
        <mxCell id="wSTr7OxH0drEcwQe5ynE-190" value="&lt;b&gt;&lt;font style=&quot;font-size: 13px;&quot;&gt;graduation_grade&lt;/font&gt;&lt;/b&gt;" style="whiteSpace=wrap;html=1;align=center;" parent="1" vertex="1">
          <mxGeometry x="503" y="356" width="115" height="31" as="geometry" />
        </mxCell>
        <mxCell id="wSTr7OxH0drEcwQe5ynE-191" value="&lt;b&gt;&lt;font style=&quot;font-size: 13px;&quot;&gt;email&lt;/font&gt;&lt;/b&gt;" style="whiteSpace=wrap;html=1;align=center;" parent="1" vertex="1">
          <mxGeometry x="619" y="356" width="68" height="31" as="geometry" />
        </mxCell>
        <mxCell id="wSTr7OxH0drEcwQe5ynE-192" value="&lt;b&gt;&lt;font style=&quot;font-size: 13px;&quot;&gt;phone&lt;/font&gt;&lt;/b&gt;" style="whiteSpace=wrap;html=1;align=center;" parent="1" vertex="1">
          <mxGeometry x="687" y="356" width="71" height="31" as="geometry" />
        </mxCell>
        <mxCell id="wSTr7OxH0drEcwQe5ynE-193" value="&lt;b&gt;&lt;font style=&quot;font-size: 13px;&quot;&gt;password&lt;/font&gt;&lt;/b&gt;" style="whiteSpace=wrap;html=1;align=center;" parent="1" vertex="1">
          <mxGeometry x="759" y="356" width="71" height="31" as="geometry" />
        </mxCell>
        <mxCell id="wSTr7OxH0drEcwQe5ynE-212" style="edgeStyle=orthogonalEdgeStyle;rounded=0;orthogonalLoop=1;jettySize=auto;html=1;" parent="1" source="wSTr7OxH0drEcwQe5ynE-195" target="wSTr7OxH0drEcwQe5ynE-177" edge="1">
          <mxGeometry relative="1" as="geometry">
            <Array as="points">
              <mxPoint x="-191" y="441" />
              <mxPoint x="-191" y="400" />
              <mxPoint x="-135" y="400" />
            </Array>
          </mxGeometry>
        </mxCell>
        <mxCell id="wSTr7OxH0drEcwQe5ynE-195" value="&lt;b&gt;&lt;font style=&quot;font-size: 13px;&quot;&gt;st_id&lt;/font&gt;&lt;/b&gt;" style="whiteSpace=wrap;html=1;align=center;fontStyle=4" parent="1" vertex="1">
          <mxGeometry x="-170" y="425" width="73" height="31" as="geometry" />
        </mxCell>
        <mxCell id="wSTr7OxH0drEcwQe5ynE-196" value="&lt;b&gt;&lt;u&gt;&lt;font style=&quot;font-size: 14px;&quot;&gt;Freelancing&lt;/font&gt;&lt;/u&gt;&lt;/b&gt;" style="text;strokeColor=none;fillColor=none;spacingLeft=4;spacingRight=4;overflow=hidden;rotatable=0;points=[[0,0.5],[1,0.5]];portConstraint=eastwest;fontSize=12;whiteSpace=wrap;html=1;labelBackgroundColor=none;labelBorderColor=none;" parent="1" vertex="1">
          <mxGeometry x="-170" y="395" width="92" height="29" as="geometry" />
        </mxCell>
        <mxCell id="wSTr7OxH0drEcwQe5ynE-197" value="&lt;b&gt;&lt;font style=&quot;font-size: 13px;&quot;&gt;freelancing_id&lt;/font&gt;&lt;/b&gt;" style="whiteSpace=wrap;html=1;align=center;fontStyle=4" parent="1" vertex="1">
          <mxGeometry x="-96" y="425" width="98" height="31" as="geometry" />
        </mxCell>
        <mxCell id="wSTr7OxH0drEcwQe5ynE-198" value="&lt;span style=&quot;font-size: 13px;&quot;&gt;&lt;b&gt;platform&lt;/b&gt;&lt;/span&gt;" style="whiteSpace=wrap;html=1;align=center;" parent="1" vertex="1">
          <mxGeometry x="2" y="425" width="73" height="31" as="geometry" />
        </mxCell>
        <mxCell id="wSTr7OxH0drEcwQe5ynE-199" value="&lt;b&gt;&lt;font style=&quot;font-size: 13px;&quot;&gt;job_descreption&lt;/font&gt;&lt;/b&gt;" style="whiteSpace=wrap;html=1;align=center;" parent="1" vertex="1">
          <mxGeometry x="76" y="425" width="122" height="31" as="geometry" />
        </mxCell>
        <mxCell id="wSTr7OxH0drEcwQe5ynE-200" value="&lt;b&gt;&lt;font style=&quot;font-size: 13px;&quot;&gt;job_type&lt;/font&gt;&lt;/b&gt;" style="whiteSpace=wrap;html=1;align=center;" parent="1" vertex="1">
          <mxGeometry x="198" y="425" width="73" height="31" as="geometry" />
        </mxCell>
        <mxCell id="wSTr7OxH0drEcwQe5ynE-201" value="&lt;b&gt;&lt;font style=&quot;font-size: 13px;&quot;&gt;date&lt;/font&gt;&lt;/b&gt;" style="whiteSpace=wrap;html=1;align=center;" parent="1" vertex="1">
          <mxGeometry x="272" y="425" width="73" height="31" as="geometry" />
        </mxCell>
        <mxCell id="wSTr7OxH0drEcwQe5ynE-202" value="&lt;span style=&quot;font-size: 13px;&quot;&gt;&lt;b&gt;price&lt;/b&gt;&lt;/span&gt;" style="whiteSpace=wrap;html=1;align=center;" parent="1" vertex="1">
          <mxGeometry x="346" y="425" width="73" height="31" as="geometry" />
        </mxCell>
        <mxCell id="wSTr7OxH0drEcwQe5ynE-221" style="edgeStyle=orthogonalEdgeStyle;rounded=0;orthogonalLoop=1;jettySize=auto;html=1;" parent="1" source="wSTr7OxH0drEcwQe5ynE-213" target="wSTr7OxH0drEcwQe5ynE-177" edge="1">
          <mxGeometry relative="1" as="geometry">
            <Array as="points">
              <mxPoint x="-210" y="501" />
              <mxPoint x="-210" y="380" />
            </Array>
          </mxGeometry>
        </mxCell>
        <mxCell id="wSTr7OxH0drEcwQe5ynE-213" value="&lt;b&gt;&lt;font style=&quot;font-size: 13px;&quot;&gt;st_id&lt;/font&gt;&lt;/b&gt;" style="whiteSpace=wrap;html=1;align=center;fontStyle=4" parent="1" vertex="1">
          <mxGeometry x="-169" y="485" width="73" height="31" as="geometry" />
        </mxCell>
        <mxCell id="wSTr7OxH0drEcwQe5ynE-214" value="&lt;b&gt;&lt;u&gt;&lt;font style=&quot;font-size: 14px;&quot;&gt;Certificate&lt;/font&gt;&lt;/u&gt;&lt;/b&gt;" style="text;strokeColor=none;fillColor=none;spacingLeft=4;spacingRight=4;overflow=hidden;rotatable=0;points=[[0,0.5],[1,0.5]];portConstraint=eastwest;fontSize=12;whiteSpace=wrap;html=1;labelBackgroundColor=none;labelBorderColor=none;" parent="1" vertex="1">
          <mxGeometry x="-169" y="455" width="92" height="29" as="geometry" />
        </mxCell>
        <mxCell id="wSTr7OxH0drEcwQe5ynE-215" value="&lt;b&gt;&lt;font style=&quot;font-size: 13px;&quot;&gt;certificate_id&lt;/font&gt;&lt;/b&gt;" style="whiteSpace=wrap;html=1;align=center;fontStyle=4" parent="1" vertex="1">
          <mxGeometry x="-95" y="485" width="98" height="31" as="geometry" />
        </mxCell>
        <mxCell id="wSTr7OxH0drEcwQe5ynE-216" value="&lt;span style=&quot;font-size: 13px;&quot;&gt;&lt;b&gt;specialization&lt;/b&gt;&lt;/span&gt;" style="whiteSpace=wrap;html=1;align=center;" parent="1" vertex="1">
          <mxGeometry x="99" y="485" width="96" height="31" as="geometry" />
        </mxCell>
        <mxCell id="wSTr7OxH0drEcwQe5ynE-217" value="&lt;b&gt;&lt;font style=&quot;font-size: 13px;&quot;&gt;certificate_by&lt;/font&gt;&lt;/b&gt;" style="whiteSpace=wrap;html=1;align=center;" parent="1" vertex="1">
          <mxGeometry x="196" y="485" width="99" height="31" as="geometry" />
        </mxCell>
        <mxCell id="wSTr7OxH0drEcwQe5ynE-218" value="&lt;b&gt;&lt;font style=&quot;font-size: 13px;&quot;&gt;date&lt;/font&gt;&lt;/b&gt;" style="whiteSpace=wrap;html=1;align=center;" parent="1" vertex="1">
          <mxGeometry x="295" y="485" width="73" height="31" as="geometry" />
        </mxCell>
        <mxCell id="wSTr7OxH0drEcwQe5ynE-219" value="&lt;b&gt;&lt;font style=&quot;font-size: 13px;&quot;&gt;fees&lt;/font&gt;&lt;/b&gt;" style="whiteSpace=wrap;html=1;align=center;" parent="1" vertex="1">
          <mxGeometry x="369" y="485" width="73" height="31" as="geometry" />
        </mxCell>
        <mxCell id="wSTr7OxH0drEcwQe5ynE-222" value="&lt;span style=&quot;font-size: 13px;&quot;&gt;&lt;b&gt;question_id&lt;/b&gt;&lt;/span&gt;" style="whiteSpace=wrap;html=1;align=center;fontStyle=4" parent="1" vertex="1">
          <mxGeometry x="-168" y="619" width="83" height="31" as="geometry" />
        </mxCell>
        <mxCell id="wSTr7OxH0drEcwQe5ynE-223" value="&lt;b&gt;&lt;u&gt;&lt;font style=&quot;font-size: 14px;&quot;&gt;Question&lt;/font&gt;&lt;/u&gt;&lt;/b&gt;" style="text;strokeColor=none;fillColor=none;spacingLeft=4;spacingRight=4;overflow=hidden;rotatable=0;points=[[0,0.5],[1,0.5]];portConstraint=eastwest;fontSize=12;whiteSpace=wrap;html=1;labelBackgroundColor=none;labelBorderColor=none;" parent="1" vertex="1">
          <mxGeometry x="-168" y="589" width="92" height="29" as="geometry" />
        </mxCell>
        <mxCell id="wSTr7OxH0drEcwQe5ynE-224" value="&lt;b&gt;&lt;font style=&quot;font-size: 13px;&quot;&gt;type&lt;/font&gt;&lt;/b&gt;" style="whiteSpace=wrap;html=1;align=center;fontStyle=0" parent="1" vertex="1">
          <mxGeometry x="-85" y="619" width="69" height="31" as="geometry" />
        </mxCell>
        <mxCell id="wSTr7OxH0drEcwQe5ynE-225" value="&lt;span style=&quot;font-size: 13px;&quot;&gt;&lt;b&gt;question&lt;/b&gt;&lt;/span&gt;" style="whiteSpace=wrap;html=1;align=center;" parent="1" vertex="1">
          <mxGeometry x="-16" y="619" width="83" height="31" as="geometry" />
        </mxCell>
        <mxCell id="wSTr7OxH0drEcwQe5ynE-227" value="&lt;b&gt;&lt;font style=&quot;font-size: 13px;&quot;&gt;choice A&lt;/font&gt;&lt;/b&gt;" style="whiteSpace=wrap;html=1;align=center;" parent="1" vertex="1">
          <mxGeometry x="69" y="619" width="73" height="31" as="geometry" />
        </mxCell>
        <mxCell id="wSTr7OxH0drEcwQe5ynE-228" value="&lt;b&gt;&lt;font style=&quot;font-size: 13px;&quot;&gt;choice B&lt;/font&gt;&lt;/b&gt;" style="whiteSpace=wrap;html=1;align=center;" parent="1" vertex="1">
          <mxGeometry x="143" y="619" width="73" height="31" as="geometry" />
        </mxCell>
        <mxCell id="wSTr7OxH0drEcwQe5ynE-229" value="&lt;b&gt;&lt;font style=&quot;font-size: 13px;&quot;&gt;choice C&lt;/font&gt;&lt;/b&gt;" style="whiteSpace=wrap;html=1;align=center;" parent="1" vertex="1">
          <mxGeometry x="217" y="619" width="73" height="31" as="geometry" />
        </mxCell>
        <mxCell id="wSTr7OxH0drEcwQe5ynE-230" value="&lt;b&gt;&lt;font style=&quot;font-size: 13px;&quot;&gt;model_answer&lt;/font&gt;&lt;/b&gt;" style="whiteSpace=wrap;html=1;align=center;" parent="1" vertex="1">
          <mxGeometry x="290" y="619" width="106" height="31" as="geometry" />
        </mxCell>
        <mxCell id="wSTr7OxH0drEcwQe5ynE-232" style="edgeStyle=orthogonalEdgeStyle;rounded=0;orthogonalLoop=1;jettySize=auto;html=1;" parent="1" source="wSTr7OxH0drEcwQe5ynE-231" target="wSTr7OxH0drEcwQe5ynE-141" edge="1">
          <mxGeometry relative="1" as="geometry">
            <Array as="points">
              <mxPoint x="437" y="592" />
              <mxPoint x="-223" y="592" />
              <mxPoint x="-223" y="123" />
            </Array>
          </mxGeometry>
        </mxCell>
        <mxCell id="wSTr7OxH0drEcwQe5ynE-231" value="&lt;b&gt;&lt;font style=&quot;font-size: 13px;&quot;&gt;course_id&lt;/font&gt;&lt;/b&gt;" style="whiteSpace=wrap;html=1;align=center;" parent="1" vertex="1">
          <mxGeometry x="397" y="619" width="81" height="31" as="geometry" />
        </mxCell>
        <mxCell id="wSTr7OxH0drEcwQe5ynE-242" style="edgeStyle=orthogonalEdgeStyle;rounded=0;orthogonalLoop=1;jettySize=auto;html=1;" parent="1" source="wSTr7OxH0drEcwQe5ynE-233" target="wSTr7OxH0drEcwQe5ynE-177" edge="1">
          <mxGeometry relative="1" as="geometry">
            <Array as="points">
              <mxPoint x="-126" y="526" />
              <mxPoint x="480" y="526" />
              <mxPoint x="480" y="340" />
              <mxPoint x="-110" y="340" />
            </Array>
          </mxGeometry>
        </mxCell>
        <mxCell id="wSTr7OxH0drEcwQe5ynE-233" value="&lt;span style=&quot;font-size: 13px;&quot;&gt;&lt;b&gt;st_id&lt;/b&gt;&lt;/span&gt;" style="whiteSpace=wrap;html=1;align=center;fontStyle=4" parent="1" vertex="1">
          <mxGeometry x="-168" y="552" width="83" height="31" as="geometry" />
        </mxCell>
        <mxCell id="wSTr7OxH0drEcwQe5ynE-234" value="&lt;b&gt;&lt;u&gt;&lt;font style=&quot;font-size: 14px;&quot;&gt;Student_Course&lt;/font&gt;&lt;/u&gt;&lt;/b&gt;" style="text;strokeColor=none;fillColor=none;spacingLeft=4;spacingRight=4;overflow=hidden;rotatable=0;points=[[0,0.5],[1,0.5]];portConstraint=eastwest;fontSize=12;whiteSpace=wrap;html=1;labelBackgroundColor=none;labelBorderColor=none;" parent="1" vertex="1">
          <mxGeometry x="-168" y="522" width="132" height="29" as="geometry" />
        </mxCell>
        <mxCell id="wSTr7OxH0drEcwQe5ynE-243" style="edgeStyle=orthogonalEdgeStyle;rounded=0;orthogonalLoop=1;jettySize=auto;html=1;" parent="1" source="wSTr7OxH0drEcwQe5ynE-235" target="wSTr7OxH0drEcwQe5ynE-141" edge="1">
          <mxGeometry relative="1" as="geometry">
            <Array as="points">
              <mxPoint x="-37" y="537" />
              <mxPoint x="517" y="537" />
              <mxPoint x="517" y="154" />
              <mxPoint x="-130" y="154" />
            </Array>
          </mxGeometry>
        </mxCell>
        <mxCell id="wSTr7OxH0drEcwQe5ynE-235" value="&lt;b&gt;&lt;font style=&quot;font-size: 13px;&quot;&gt;course_id&lt;/font&gt;&lt;/b&gt;" style="whiteSpace=wrap;html=1;align=center;fontStyle=4" parent="1" vertex="1">
          <mxGeometry x="-85" y="552" width="69" height="31" as="geometry" />
        </mxCell>
        <mxCell id="wSTr7OxH0drEcwQe5ynE-236" value="&lt;span style=&quot;font-size: 13px;&quot;&gt;&lt;b&gt;attendance&lt;/b&gt;&lt;/span&gt;" style="whiteSpace=wrap;html=1;align=center;" parent="1" vertex="1">
          <mxGeometry x="-16" y="552" width="83" height="31" as="geometry" />
        </mxCell>
        <mxCell id="wSTr7OxH0drEcwQe5ynE-237" value="&lt;b&gt;&lt;font style=&quot;font-size: 13px;&quot;&gt;assigments&lt;/font&gt;&lt;/b&gt;" style="whiteSpace=wrap;html=1;align=center;" parent="1" vertex="1">
          <mxGeometry x="69" y="552" width="82" height="31" as="geometry" />
        </mxCell>
        <mxCell id="wSTr7OxH0drEcwQe5ynE-238" value="&lt;b&gt;&lt;font style=&quot;font-size: 13px;&quot;&gt;grade&lt;/font&gt;&lt;/b&gt;" style="whiteSpace=wrap;html=1;align=center;" parent="1" vertex="1">
          <mxGeometry x="151" y="552" width="73" height="31" as="geometry" />
        </mxCell>
        <mxCell id="wSTr7OxH0drEcwQe5ynE-239" value="&lt;b&gt;&lt;font style=&quot;font-size: 13px;&quot;&gt;evaluation&lt;/font&gt;&lt;/b&gt;" style="whiteSpace=wrap;html=1;align=center;" parent="1" vertex="1">
          <mxGeometry x="224" y="552" width="73" height="31" as="geometry" />
        </mxCell>
        <mxCell id="wSTr7OxH0drEcwQe5ynE-244" value="&lt;span style=&quot;font-size: 13px;&quot;&gt;&lt;b&gt;exam_id&lt;/b&gt;&lt;/span&gt;" style="whiteSpace=wrap;html=1;align=center;fontStyle=4" parent="1" vertex="1">
          <mxGeometry x="-167" y="680" width="83" height="31" as="geometry" />
        </mxCell>
        <mxCell id="wSTr7OxH0drEcwQe5ynE-245" value="&lt;b&gt;&lt;u&gt;&lt;font style=&quot;font-size: 14px;&quot;&gt;Exam&lt;/font&gt;&lt;/u&gt;&lt;/b&gt;" style="text;strokeColor=none;fillColor=none;spacingLeft=4;spacingRight=4;overflow=hidden;rotatable=0;points=[[0,0.5],[1,0.5]];portConstraint=eastwest;fontSize=12;whiteSpace=wrap;html=1;labelBackgroundColor=none;labelBorderColor=none;" parent="1" vertex="1">
          <mxGeometry x="-167" y="650" width="92" height="29" as="geometry" />
        </mxCell>
        <mxCell id="wSTr7OxH0drEcwQe5ynE-246" value="&lt;b&gt;&lt;font style=&quot;font-size: 13px;&quot;&gt;exam_date&lt;/font&gt;&lt;/b&gt;" style="whiteSpace=wrap;html=1;align=center;fontStyle=0" parent="1" vertex="1">
          <mxGeometry x="-84" y="680" width="81" height="31" as="geometry" />
        </mxCell>
        <mxCell id="wSTr7OxH0drEcwQe5ynE-258" value="&lt;span style=&quot;font-size: 13px;&quot;&gt;&lt;b&gt;exam_id&lt;/b&gt;&lt;/span&gt;" style="whiteSpace=wrap;html=1;align=center;fontStyle=4" parent="1" vertex="1">
          <mxGeometry x="-168" y="746" width="83" height="31" as="geometry" />
        </mxCell>
        <mxCell id="wSTr7OxH0drEcwQe5ynE-259" value="&lt;span style=&quot;font-size: 14px;&quot;&gt;&lt;b&gt;&lt;u&gt;Student_Exam_Question&lt;/u&gt;&lt;/b&gt;&lt;/span&gt;" style="text;strokeColor=none;fillColor=none;spacingLeft=4;spacingRight=4;overflow=hidden;rotatable=0;points=[[0,0.5],[1,0.5]];portConstraint=eastwest;fontSize=12;whiteSpace=wrap;html=1;labelBackgroundColor=none;labelBorderColor=none;" parent="1" vertex="1">
          <mxGeometry x="-168" y="716" width="186" height="29" as="geometry" />
        </mxCell>
        <mxCell id="wSTr7OxH0drEcwQe5ynE-270" style="edgeStyle=orthogonalEdgeStyle;rounded=0;orthogonalLoop=1;jettySize=auto;html=1;" parent="1" source="wSTr7OxH0drEcwQe5ynE-260" target="wSTr7OxH0drEcwQe5ynE-177" edge="1">
          <mxGeometry relative="1" as="geometry">
            <Array as="points">
              <mxPoint x="-51" y="800" />
              <mxPoint x="-240" y="800" />
              <mxPoint x="-240" y="363" />
            </Array>
          </mxGeometry>
        </mxCell>
        <mxCell id="wSTr7OxH0drEcwQe5ynE-260" value="&lt;b&gt;&lt;font style=&quot;font-size: 13px;&quot;&gt;st_id&lt;/font&gt;&lt;/b&gt;" style="whiteSpace=wrap;html=1;align=center;fontStyle=4" parent="1" vertex="1">
          <mxGeometry x="-85" y="746" width="69" height="31" as="geometry" />
        </mxCell>
        <mxCell id="wSTr7OxH0drEcwQe5ynE-269" style="edgeStyle=orthogonalEdgeStyle;rounded=0;orthogonalLoop=1;jettySize=auto;html=1;" parent="1" source="wSTr7OxH0drEcwQe5ynE-261" target="wSTr7OxH0drEcwQe5ynE-222" edge="1">
          <mxGeometry relative="1" as="geometry">
            <Array as="points">
              <mxPoint x="26" y="787" />
              <mxPoint x="-207" y="787" />
              <mxPoint x="-207" y="635" />
            </Array>
          </mxGeometry>
        </mxCell>
        <mxCell id="wSTr7OxH0drEcwQe5ynE-261" value="&lt;span style=&quot;font-size: 13px;&quot;&gt;&lt;b&gt;question_id&lt;/b&gt;&lt;/span&gt;" style="whiteSpace=wrap;html=1;align=center;fontStyle=4" parent="1" vertex="1">
          <mxGeometry x="-16" y="746" width="83" height="31" as="geometry" />
        </mxCell>
        <mxCell id="wSTr7OxH0drEcwQe5ynE-262" value="&lt;b&gt;&lt;font style=&quot;font-size: 13px;&quot;&gt;answer&lt;/font&gt;&lt;/b&gt;" style="whiteSpace=wrap;html=1;align=center;" parent="1" vertex="1">
          <mxGeometry x="69" y="746" width="73" height="31" as="geometry" />
        </mxCell>
        <mxCell id="wSTr7OxH0drEcwQe5ynE-263" value="&lt;b&gt;&lt;font style=&quot;font-size: 13px;&quot;&gt;grade&lt;/font&gt;&lt;/b&gt;" style="whiteSpace=wrap;html=1;align=center;" parent="1" vertex="1">
          <mxGeometry x="143" y="746" width="73" height="31" as="geometry" />
        </mxCell>
        <mxCell id="wSTr7OxH0drEcwQe5ynE-268" style="edgeStyle=orthogonalEdgeStyle;rounded=0;orthogonalLoop=1;jettySize=auto;html=1;entryX=0.034;entryY=0.327;entryDx=0;entryDy=0;entryPerimeter=0;" parent="1" source="wSTr7OxH0drEcwQe5ynE-258" target="wSTr7OxH0drEcwQe5ynE-244" edge="1">
          <mxGeometry relative="1" as="geometry">
            <Array as="points">
              <mxPoint x="-193" y="762" />
              <mxPoint x="-193" y="690" />
            </Array>
          </mxGeometry>
        </mxCell>
        <mxCell id="PqvrrEqqvb_xSWUyAKXC-1" value="&lt;b&gt;&lt;font style=&quot;font-size: 13px;&quot;&gt;location&lt;/font&gt;&lt;/b&gt;" style="whiteSpace=wrap;html=1;align=center;" vertex="1" parent="1">
          <mxGeometry x="-4" y="233" width="73" height="31" as="geometry" />
        </mxCell>
        <mxCell id="PqvrrEqqvb_xSWUyAKXC-3" style="edgeStyle=orthogonalEdgeStyle;rounded=0;orthogonalLoop=1;jettySize=auto;html=1;" edge="1" parent="1" source="PqvrrEqqvb_xSWUyAKXC-2" target="wSTr7OxH0drEcwQe5ynE-164">
          <mxGeometry relative="1" as="geometry">
            <Array as="points">
              <mxPoint x="1013" y="332" />
              <mxPoint x="-244" y="332" />
              <mxPoint x="-244" y="260" />
            </Array>
          </mxGeometry>
        </mxCell>
        <mxCell id="PqvrrEqqvb_xSWUyAKXC-2" value="&lt;b&gt;&lt;font style=&quot;font-size: 13px;&quot;&gt;branch_id&lt;/font&gt;&lt;/b&gt;" style="whiteSpace=wrap;html=1;align=center;" vertex="1" parent="1">
          <mxGeometry x="977" y="356" width="73" height="31" as="geometry" />
        </mxCell>
        <mxCell id="PqvrrEqqvb_xSWUyAKXC-6" style="edgeStyle=orthogonalEdgeStyle;rounded=0;orthogonalLoop=1;jettySize=auto;html=1;" edge="1" parent="1" source="PqvrrEqqvb_xSWUyAKXC-4" target="wSTr7OxH0drEcwQe5ynE-164">
          <mxGeometry relative="1" as="geometry">
            <Array as="points">
              <mxPoint x="759" y="3" />
              <mxPoint x="-240" y="3" />
              <mxPoint x="-240" y="237" />
            </Array>
          </mxGeometry>
        </mxCell>
        <mxCell id="PqvrrEqqvb_xSWUyAKXC-4" value="&lt;b&gt;&lt;font style=&quot;font-size: 13px;&quot;&gt;branch_id&lt;/font&gt;&lt;/b&gt;" style="whiteSpace=wrap;html=1;align=center;" vertex="1" parent="1">
          <mxGeometry x="636" y="37" width="73" height="31" as="geometry" />
        </mxCell>
        <mxCell id="PqvrrEqqvb_xSWUyAKXC-5" value="&lt;span style=&quot;font-size: 13px;&quot;&gt;&lt;b&gt;name&lt;/b&gt;&lt;/span&gt;" style="whiteSpace=wrap;html=1;align=center;" vertex="1" parent="1">
          <mxGeometry x="4" y="485" width="96" height="31" as="geometry" />
        </mxCell>
      </root>
    </mxGraphModel>
  </diagram>
</mxfile>
